<svg xmlns="http://www.w3.org/2000/svg" xmlns:xlink="http://www.w3.org/1999/xlink" width="196" zoomAndPan="magnify" viewBox="0 0 147 147.000002" height="196" preserveAspectRatio="xMidYMid meet" version="1.0"><defs><g/><clipPath id="6b5ae14b23"><path d="M 0.496094 0 L 146.503906 0 L 146.503906 146.007812 L 0.496094 146.007812 Z M 0.496094 0 " clip-rule="nonzero"/></clipPath></defs><g clip-path="url(#6b5ae14b23)"><path fill="#ffffff" d="M 0.496094 0 L 146.503906 0 L 146.503906 146.007812 L 0.496094 146.007812 Z M 0.496094 0 " fill-opacity="1" fill-rule="nonzero"/><path fill="#182532" d="M 0.496094 0 L 146.503906 0 L 146.503906 146.007812 L 0.496094 146.007812 Z M 0.496094 0 " fill-opacity="1" fill-rule="nonzero"/></g><g fill="#ffffff" fill-opacity="1"><g transform="translate(30.570626, 96.468754)"><g><path d="M 24.609375 0.609375 C 19.992188 0.609375 16.03125 -0.519531 12.71875 -2.78125 C 9.40625 -5.039062 6.890625 -8.066406 5.171875 -11.859375 C 3.460938 -15.648438 2.609375 -19.757812 2.609375 -24.1875 C 2.609375 -28.625 3.460938 -32.722656 5.171875 -36.484375 C 6.890625 -40.253906 9.40625 -43.269531 12.71875 -45.53125 C 16.03125 -47.800781 19.992188 -48.9375 24.609375 -48.9375 C 30.222656 -48.9375 34.8125 -47.289062 38.375 -44 C 41.9375 -40.707031 44.242188 -36.457031 45.296875 -31.25 L 34.953125 -31.25 C 34.398438 -33.625 33.222656 -35.609375 31.421875 -37.203125 C 29.617188 -38.804688 27.390625 -39.609375 24.734375 -39.609375 C 21.078125 -39.609375 18.320312 -38.179688 16.46875 -35.328125 C 14.625 -32.472656 13.703125 -28.757812 13.703125 -24.1875 C 13.703125 -19.53125 14.625 -15.785156 16.46875 -12.953125 C 18.320312 -10.117188 21.078125 -8.703125 24.734375 -8.703125 C 27.335938 -8.703125 29.519531 -9.476562 31.28125 -11.03125 C 33.039062 -12.582031 34.21875 -14.429688 34.8125 -16.578125 L 45.03125 -16.578125 C 44.019531 -11.554688 41.742188 -7.4375 38.203125 -4.21875 C 34.660156 -1 30.128906 0.609375 24.609375 0.609375 Z M 24.609375 0.609375 "/></g></g></g><g fill="#ffffff" fill-opacity="1"><g transform="translate(78.878782, 96.468754)"><g><path d="M 21.796875 -47.96875 C 25.585938 -47.96875 28.796875 -47.191406 31.421875 -45.640625 C 34.046875 -44.085938 36 -42.03125 37.28125 -39.46875 C 38.5625 -36.914062 39.203125 -34.15625 39.203125 -31.1875 C 39.203125 -28.257812 38.570312 -25.550781 37.3125 -23.0625 C 36.0625 -20.570312 34.117188 -18.570312 31.484375 -17.0625 C 28.859375 -15.550781 25.628906 -14.796875 21.796875 -14.796875 L 14.046875 -14.796875 L 14.046875 0 L 3.5625 0 L 3.5625 -47.96875 Z M 20.078125 -23.578125 C 22.546875 -23.578125 24.625 -24.15625 26.3125 -25.3125 C 28.007812 -26.476562 28.859375 -28.4375 28.859375 -31.1875 C 28.859375 -33.925781 28.019531 -35.84375 26.34375 -36.9375 C 24.675781 -38.03125 22.585938 -38.578125 20.078125 -38.578125 L 14.046875 -38.578125 L 14.046875 -23.578125 Z M 20.078125 -23.578125 "/></g></g></g></svg>